<?xml version="1.0" standalone="no"?>
<!DOCTYPE svg PUBLIC "-//W3C//DTD SVG 20010904//EN"
 "http://www.w3.org/TR/2001/REC-SVG-20010904/DTD/svg10.dtd">
<svg version="1.0" xmlns="http://www.w3.org/2000/svg"
 width="902.000000pt" height="904.000000pt" viewBox="0 0 902.000000 904.000000"
 preserveAspectRatio="xMidYMid meet">

<g transform="translate(0.000000,904.000000) scale(0.100000,-0.100000)"
fill="#000000" stroke="none">
<path d="M3923 8923 c8 -127 48 -462 72 -591 19 -103 45 -144 45 -71 0 64 -76
654 -96 747 -2 12 -9 22 -16 22 -8 0 -9 -30 -5 -107z"/>
<path d="M6231 8712 c-48 -89 -291 -690 -291 -719 0 -2 8 -3 18 -3 22 0 77
110 175 355 90 222 134 362 120 376 -8 8 -14 6 -22 -9z"/>
<path d="M5011 8317 c-30 -37 -62 -322 -36 -329 20 -6 45 112 58 268 5 60 -3
83 -22 61z"/>
<path d="M1730 8124 c0 -7 102 -150 170 -239 130 -170 158 -206 211 -270 105
-127 126 -149 132 -138 7 11 -52 101 -139 213 -27 36 -74 97 -104 135 -176
230 -270 334 -270 299z"/>
<path d="M3053 8009 c6 -44 92 -232 115 -252 12 -10 13 -6 7 23 -20 92 -100
270 -121 270 -4 0 -4 -18 -1 -41z"/>
<path d="M4065 7830 c-3 -5 -3 -19 -1 -32 3 -13 8 -48 11 -78 7 -75 32 -265
56 -440 49 -353 71 -486 85 -500 12 -12 14 -9 14 25 0 95 -91 787 -125 949 -8
39 -15 74 -15 79 0 10 -18 9 -25 -3z"/>
<path d="M4932 7733 c-28 -52 -122 -772 -122 -933 0 -68 14 -79 29 -22 23 86
110 778 112 886 2 82 -3 99 -19 69z"/>
<path d="M5766 7564 c-44 -79 -192 -422 -333 -774 -53 -131 -77 -230 -56 -230
14 0 62 108 203 450 190 461 273 710 186 554z"/>
<path d="M6808 7533 c-36 -38 -148 -199 -148 -214 0 -4 4 -10 9 -13 16 -10
201 226 201 256 0 19 -29 5 -62 -29z"/>
<path d="M3266 7498 c23 -74 332 -828 346 -845 15 -19 28 -16 28 7 0 22 -55
169 -130 350 -27 66 -73 174 -100 240 -73 175 -121 270 -137 270 -10 0 -12 -6
-7 -22z"/>
<path d="M8049 7248 c-244 -176 -482 -362 -528 -412 -32 -35 -20 -43 24 -17
87 51 487 364 549 430 40 42 14 41 -45 -1z"/>
<path d="M2480 7160 c0 -25 246 -358 498 -672 86 -108 112 -133 112 -110 0 29
-437 612 -566 755 -35 38 -44 44 -44 27z"/>
<path d="M6459 7068 c-137 -147 -596 -773 -587 -800 2 -5 6 -10 10 -11 3 -1
57 66 120 148 62 83 173 228 246 324 135 176 230 308 251 349 18 33 -5 28 -40
-10z"/>
<path d="M1480 6836 c0 -26 171 -162 234 -186 42 -15 38 5 -7 42 -23 20 -62
53 -87 73 -53 44 -115 85 -130 85 -5 0 -10 -6 -10 -14z"/>
<path d="M4289 6656 c-2 -2 -41 -6 -86 -10 -45 -3 -88 -8 -95 -11 -7 -2 -26
-6 -43 -8 -103 -16 -288 -63 -400 -103 -530 -191 -1001 -616 -1233 -1114 -59
-127 -125 -323 -156 -462 -120 -538 -50 -1059 209 -1546 53 -99 121 -204 183
-282 24 -30 57 -73 74 -95 51 -65 232 -239 321 -308 314 -246 685 -404 1057
-452 25 -3 62 -8 82 -11 112 -15 371 -10 518 10 155 22 476 113 614 176 93 42
267 150 379 233 244 184 410 353 546 558 436 656 491 1482 145 2185 -179 364
-462 684 -797 901 -261 169 -542 271 -887 324 -69 10 -422 23 -431 15z m401
-61 c19 -3 62 -11 95 -16 497 -84 1054 -405 1301 -749 184 -256 376 -617 427
-805 59 -217 80 -615 46 -865 -69 -500 -380 -1066 -748 -1362 -163 -131 -417
-284 -584 -353 -275 -113 -670 -169 -982 -141 -214 19 -469 82 -660 161 -208
87 -478 261 -657 424 -181 166 -434 557 -551 852 -123 311 -146 798 -56 1189
82 355 247 681 483 957 156 183 246 252 549 427 338 194 523 260 782 282 44 4
82 8 85 11 6 6 430 -4 470 -12z"/>
<path d="M4050 6341 c-87 -19 -265 -85 -380 -141 -162 -80 -383 -218 -480
-299 -301 -253 -555 -708 -627 -1120 -24 -137 -24 -469 1 -606 49 -274 150
-528 309 -773 244 -375 532 -601 945 -741 120 -41 327 -94 407 -105 238 -32
566 -1 835 80 246 75 585 289 795 504 80 82 94 84 -145 -23 -303 -135 -467
-172 -775 -172 -210 0 -276 8 -460 56 -360 95 -707 316 -932 594 -169 208
-343 585 -389 837 -20 113 -23 358 -5 473 40 254 108 476 208 675 150 300 362
518 688 706 147 84 147 85 5 55z"/>
<path d="M7081 6500 c-142 -98 -524 -391 -703 -539 -93 -77 -114 -101 -85
-101 15 0 317 227 717 539 80 62 154 122 165 132 19 19 19 19 -1 19 -11 0 -53
-22 -93 -50z"/>
<path d="M1940 6471 c0 -6 17 -23 37 -38 21 -15 44 -34 53 -40 164 -136 587
-443 609 -443 18 0 12 15 -16 42 -50 46 -446 344 -554 417 -104 69 -129 81
-129 62z"/>
<path d="M311 6243 c30 -36 683 -313 738 -313 6 0 11 6 11 13 0 25 -459 225
-684 298 -72 23 -82 24 -65 2z"/>
<path d="M1417 5793 c-17 -16 303 -159 713 -319 90 -35 180 -55 180 -40 0 21
-820 366 -868 366 -10 0 -22 -3 -25 -7z"/>
<path d="M7415 5739 c-81 -35 -365 -153 -510 -211 -206 -82 -349 -157 -333
-173 6 -6 321 112 453 171 40 17 259 108 363 150 96 39 132 61 132 80 0 21
-28 16 -105 -17z"/>
<path d="M8999 5126 c-2 -2 -47 -7 -99 -11 -52 -3 -97 -8 -100 -10 -3 -1 -34
-6 -70 -9 -81 -9 -121 -14 -185 -26 -27 -5 -68 -12 -90 -15 -23 -3 -50 -7 -60
-9 -119 -23 -145 -30 -145 -37 0 -13 93 -11 211 5 57 8 131 17 164 20 33 4 92
11 130 16 39 5 93 12 120 15 84 9 145 26 145 40 0 14 -14 27 -21 21z"/>
<path d="M726 5011 c-9 -14 22 -26 117 -44 98 -19 182 -17 182 3 0 21 -79 40
-196 47 -67 4 -98 2 -103 -6z"/>
<path d="M7660 4954 c-58 -7 -125 -15 -150 -18 -25 -3 -94 -13 -155 -21 -60
-8 -128 -18 -150 -20 -22 -3 -62 -10 -90 -15 -27 -5 -70 -12 -95 -15 -25 -3
-70 -11 -100 -17 -30 -6 -62 -12 -70 -13 -8 -2 -36 -7 -61 -10 -52 -8 -77 -20
-66 -31 6 -6 805 91 913 110 10 2 42 6 69 10 71 10 155 35 155 46 0 13 -70 11
-200 -6z"/>
<path d="M1305 4930 c-7 -11 41 -27 100 -35 28 -4 66 -9 85 -11 19 -3 49 -7
65 -9 43 -5 185 -26 215 -30 14 -3 56 -7 95 -11 38 -4 73 -8 76 -10 3 -1 44
-6 92 -10 86 -6 104 -1 74 24 -18 15 -230 50 -412 67 -33 3 -69 8 -80 10 -19
4 -139 13 -253 19 -29 2 -55 0 -57 -4z"/>
<path d="M6736 4232 c-25 -24 36 -40 259 -67 44 -5 229 -30 310 -40 17 -3 79
-11 138 -20 209 -30 338 -32 310 -4 -10 10 -178 41 -299 54 -32 4 -68 9 -78
11 -31 6 -184 25 -316 40 -25 2 -54 7 -65 9 -11 2 -58 7 -105 10 -47 4 -99 8
-117 10 -18 1 -34 0 -37 -3z"/>
<path d="M1967 4194 c-1 -1 -38 -5 -82 -8 -44 -4 -87 -9 -95 -11 -19 -5 -69
-12 -145 -21 -33 -3 -67 -8 -75 -9 -8 -2 -73 -10 -145 -19 -182 -23 -264 -44
-216 -56 42 -10 332 17 581 55 14 2 48 6 75 9 28 4 61 8 75 11 14 3 41 7 60
10 120 20 143 48 33 43 -35 -1 -65 -3 -66 -4z"/>
<path d="M8000 4070 c0 -20 60 -39 168 -55 124 -18 167 -17 167 5 0 16 -27 23
-170 45 -117 17 -165 19 -165 5z"/>
<path d="M658 4015 c-2 -1 -40 -5 -85 -9 -46 -3 -118 -11 -160 -16 -43 -6 -94
-13 -113 -15 -114 -14 -141 -18 -204 -30 -72 -14 -109 -34 -65 -36 39 -2 141
1 179 6 463 57 600 79 600 97 0 7 -143 10 -152 3z"/>
<path d="M6605 3640 c8 -14 142 -73 505 -223 308 -127 400 -163 459 -181 66
-19 71 -20 71 -3 0 18 -112 71 -390 184 -457 185 -666 258 -645 223z"/>
<path d="M2185 3558 c-36 -13 -222 -85 -250 -98 -11 -5 -36 -15 -55 -24 -292
-124 -362 -158 -349 -171 20 -19 690 256 713 294 9 14 -18 13 -59 -1z"/>
<path d="M1207 3154 c-51 -13 -179 -72 -212 -97 -31 -23 -10 -32 43 -18 55 14
226 94 236 109 10 17 -16 20 -67 6z"/>
<path d="M6330 3131 c0 -35 733 -601 778 -601 26 0 8 21 -80 92 -74 59 -271
212 -323 250 -5 4 -26 20 -45 36 -108 88 -308 232 -322 232 -5 0 -8 -4 -8 -9z"/>
<path d="M7990 3081 c0 -14 168 -94 380 -181 69 -28 134 -55 145 -60 100 -44
215 -72 215 -52 0 10 -3 12 -250 119 -347 150 -490 201 -490 174z"/>
<path d="M2491 2969 c-40 -27 -134 -97 -209 -155 -75 -57 -180 -137 -232 -177
-118 -90 -200 -168 -182 -174 17 -7 30 2 318 224 280 216 385 302 392 321 7
22 -14 13 -87 -39z"/>
<path d="M5940 2665 c0 -29 75 -133 392 -539 183 -233 220 -277 231 -273 23 7
16 26 -26 78 -54 67 -123 156 -246 319 -119 157 -316 403 -336 420 -12 10 -15
10 -15 -5z"/>
<path d="M2929 2458 c-47 -57 -130 -161 -184 -233 -54 -71 -125 -162 -157
-202 -61 -75 -71 -103 -39 -103 24 0 142 145 309 379 126 177 179 261 165 261
-5 0 -47 -46 -94 -102z"/>
<path d="M7392 2297 c75 -70 182 -134 193 -116 8 13 12 10 -90 86 -145 109
-208 127 -103 30z"/>
<path d="M5420 2340 c0 -62 323 -820 349 -820 6 0 11 4 11 10 0 17 -197 494
-296 716 -41 92 -64 125 -64 94z"/>
<path d="M3571 2253 c-43 -81 -209 -481 -283 -682 -38 -104 -47 -139 -40 -155
9 -18 15 -10 50 64 94 202 302 732 302 770 0 25 -16 26 -29 3z"/>
<path d="M1510 2210 c-19 -10 -100 -68 -180 -129 -80 -61 -205 -157 -278 -213
-73 -56 -135 -106 -139 -111 -3 -5 1 -15 8 -22 16 -16 75 27 408 294 107 86
201 161 209 167 29 22 8 33 -28 14z"/>
<path d="M4830 2136 c0 -121 105 -945 123 -962 12 -12 27 8 23 29 -3 12 -7 54
-10 94 -5 63 -15 164 -31 298 -19 163 -58 450 -68 499 -12 61 -37 89 -37 42z"/>
<path d="M4192 2078 c-60 -276 -110 -788 -77 -788 6 0 13 13 17 28 14 49 77
574 84 695 7 126 -4 157 -24 65z"/>
<path d="M2319 1661 c-90 -95 -162 -211 -130 -211 24 0 201 225 201 256 0 24
-13 16 -71 -45z"/>
<path d="M6810 1537 c0 -28 48 -98 265 -377 66 -85 138 -178 159 -207 24 -31
44 -49 52 -46 32 12 37 5 -242 363 -181 233 -233 292 -234 267z"/>
<path d="M5870 1252 c0 -52 76 -227 113 -259 20 -18 20 -17 13 27 -4 25 -29
91 -56 148 -46 96 -70 125 -70 84z"/>
<path d="M3039 983 c-42 -93 -200 -490 -233 -587 -27 -77 -28 -95 -6 -81 38
24 290 641 290 712 0 42 -20 24 -51 -44z"/>
<path d="M4049 1003 c-14 -37 -39 -207 -39 -265 0 -35 4 -48 14 -48 27 0 56
139 56 268 0 75 -12 93 -31 45z"/>
<path d="M5006 801 c-12 -18 50 -502 91 -714 19 -101 40 -113 35 -21 -8 140
-82 666 -102 718 -10 28 -15 31 -24 17z"/>
</g>
</svg>
